<svg width="512" height="512" viewBox="0 0 512 512" fill="none" xmlns="http://www.w3.org/2000/svg">
  <defs>
    <linearGradient id="disc" x1="96" y1="80" x2="416" y2="432" gradientUnits="userSpaceOnUse">
      <stop offset="0" stop-color="#2563eb"/>
      <stop offset="0.55" stop-color="#7c3aed"/>
      <stop offset="1" stop-color="#ec4899"/>
    </linearGradient>
    <linearGradient id="ring" x1="128" y1="96" x2="384" y2="416" gradientUnits="userSpaceOnUse">
      <stop offset="0" stop-color="#ffffff" stop-opacity="0.72"/>
      <stop offset="1" stop-color="#ffffff" stop-opacity="0.18"/>
    </linearGradient>
    <filter id="softShadow" x="40" y="44" width="432" height="432" filterUnits="userSpaceOnUse" color-interpolation-filters="sRGB">
      <feDropShadow dx="0" dy="24" stdDeviation="24" flood-color="#1e1b4b" flood-opacity="0.28"/>
    </filter>
  </defs>
  <circle cx="256" cy="248" r="190" fill="url(#disc)" filter="url(#softShadow)"/>
  <circle cx="256" cy="248" r="164" stroke="url(#ring)" stroke-width="10"/>
  <circle cx="184" cy="138" r="34" fill="#ffffff" fill-opacity="0.14"/>
  <circle cx="358" cy="366" r="46" fill="#ffffff" fill-opacity="0.1"/>
  <g stroke="#ffffff" stroke-linecap="round" stroke-linejoin="round">
    <rect x="196" y="188" width="120" height="120" rx="24" stroke-width="22"/>
    <rect x="226" y="218" width="60" height="60" rx="8" stroke-width="14"/>
    <path d="M176 208H144M176 248H140M176 288H144" stroke-width="16"/>
    <path d="M336 208H368M336 248H372M336 288H368" stroke-width="16"/>
    <path d="M216 168V136M256 168V128M296 168V136" stroke-width="16"/>
    <path d="M216 328V360M256 328V368M296 328V360" stroke-width="16"/>
  </g>
  <path d="M370 116C361 143 353 150 345 158C353 166 363 174 370 186C354 178 345 172 336 169C325 184 315 196 303 208C314 184 319 171 322 158C307 153 292 151 282 146C307 143 319 143 329 146C344 133 358 121 370 116Z" fill="#ffffff" fill-opacity="0.9"/>
</svg>
